<svg id="visual" viewBox="0 0 900 50" width="900" height="50" xmlns="http://www.w3.org/2000/svg" xmlns:xlink="http://www.w3.org/1999/xlink" version="1.1"><rect x="0" y="0" width="900" height="50" fill="#000"></rect><path d="M0 16L8.3 18.5C16.7 21 33.3 26 50 27.8C66.7 29.7 83.3 28.3 100 25.8C116.7 23.3 133.3 19.7 150 20C166.7 20.3 183.3 24.7 200 25.8C216.7 27 233.3 25 250 25.3C266.7 25.7 283.3 28.3 300 30.3C316.7 32.3 333.3 33.7 350 31C366.7 28.3 383.3 21.7 400 21.2C416.7 20.7 433.3 26.3 450 26.3C466.7 26.3 483.3 20.7 500 20.3C516.7 20 533.3 25 550 24.7C566.7 24.3 583.3 18.7 600 18.3C616.7 18 633.3 23 650 26.2C666.7 29.3 683.3 30.7 700 29.2C716.7 27.7 733.3 23.3 750 20.7C766.7 18 783.3 17 800 19.2C816.7 21.3 833.3 26.7 850 28C866.7 29.3 883.3 26.7 891.7 25.3L900 24L900 51L891.7 51C883.3 51 866.7 51 850 51C833.3 51 816.7 51 800 51C783.3 51 766.7 51 750 51C733.3 51 716.7 51 700 51C683.3 51 666.7 51 650 51C633.3 51 616.7 51 600 51C583.3 51 566.7 51 550 51C533.3 51 516.7 51 500 51C483.3 51 466.7 51 450 51C433.3 51 416.7 51 400 51C383.3 51 366.7 51 350 51C333.3 51 316.7 51 300 51C283.3 51 266.7 51 250 51C233.3 51 216.7 51 200 51C183.3 51 166.7 51 150 51C133.3 51 116.7 51 100 51C83.3 51 66.7 51 50 51C33.3 51 16.7 51 8.3 51L0 51Z" fill="#b61515" stroke-linecap="round" stroke-linejoin="miter"></path></svg>