<svg id="visual" viewBox="0 0 900 50" width="900" height="50" xmlns="http://www.w3.org/2000/svg" xmlns:xlink="http://www.w3.org/1999/xlink" version="1.1"><path d="M0 15L12.5 15.2C25 15.3 50 15.7 75 16.2C100 16.7 125 17.3 150 20C175 22.7 200 27.3 225 29.3C250 31.3 275 30.7 300 30C325 29.3 350 28.7 375 25.8C400 23 425 18 450 17.8C475 17.7 500 22.3 525 23C550 23.7 575 20.3 600 18.5C625 16.7 650 16.3 675 15.5C700 14.7 725 13.3 750 15.3C775 17.3 800 22.7 825 26.2C850 29.7 875 31.3 887.5 32.2L900 33L900 51L887.5 51C875 51 850 51 825 51C800 51 775 51 750 51C725 51 700 51 675 51C650 51 625 51 600 51C575 51 550 51 525 51C500 51 475 51 450 51C425 51 400 51 375 51C350 51 325 51 300 51C275 51 250 51 225 51C200 51 175 51 150 51C125 51 100 51 75 51C50 51 25 51 12.5 51L0 51Z" fill="#b61515" stroke-linecap="round" stroke-linejoin="miter"></path></svg>