<svg id="visual" viewBox="0 0 900 50" width="900" height="50" xmlns="http://www.w3.org/2000/svg" xmlns:xlink="http://www.w3.org/1999/xlink" version="1.1"><path d="M0 25L7.8 26.2C15.7 27.3 31.3 29.7 47.2 27.7C63 25.7 79 19.3 94.8 16.2C110.7 13 126.3 13 142 16.2C157.7 19.3 173.3 25.7 189.2 27.5C205 29.3 221 26.7 236.8 25.7C252.7 24.7 268.3 25.3 284.2 24.3C300 23.3 316 20.7 331.8 22C347.7 23.3 363.3 28.7 379 30.5C394.7 32.3 410.3 30.7 426.2 30C442 29.3 458 29.7 473.8 28C489.7 26.3 505.3 22.7 521 23.3C536.7 24 552.3 29 568.2 31.8C584 34.7 600 35.3 615.8 35.5C631.7 35.7 647.3 35.3 663.2 34.5C679 33.7 695 32.3 710.8 30.3C726.7 28.3 742.3 25.7 758 23.5C773.7 21.3 789.3 19.7 805.2 21.5C821 23.3 837 28.7 852.8 28.5C868.7 28.3 884.3 22.7 892.2 19.8L900 17L900 51L892.2 51C884.3 51 868.7 51 852.8 51C837 51 821 51 805.2 51C789.3 51 773.7 51 758 51C742.3 51 726.7 51 710.8 51C695 51 679 51 663.2 51C647.3 51 631.7 51 615.8 51C600 51 584 51 568.2 51C552.3 51 536.7 51 521 51C505.3 51 489.7 51 473.8 51C458 51 442 51 426.2 51C410.3 51 394.7 51 379 51C363.3 51 347.7 51 331.8 51C316 51 300 51 284.2 51C268.3 51 252.7 51 236.8 51C221 51 205 51 189.2 51C173.3 51 157.7 51 142 51C126.3 51 110.7 51 94.8 51C79 51 63 51 47.2 51C31.3 51 15.7 51 7.8 51L0 51Z" fill="#b61515" stroke-linecap="round" stroke-linejoin="miter"></path></svg>