<svg id="visual" viewBox="0 0 900 100" width="900" height="100" xmlns="http://www.w3.org/2000/svg" xmlns:xlink="http://www.w3.org/1999/xlink" version="1.1"><path d="M0 11L12.5 11.5C25 12 50 13 75 15.7C100 18.3 125 22.7 150 23C175 23.3 200 19.7 225 17.8C250 16 275 16 300 16.7C325 17.3 350 18.7 375 19C400 19.3 425 18.7 450 18.7C475 18.7 500 19.3 525 20.8C550 22.3 575 24.7 600 26C625 27.3 650 27.7 675 26.3C700 25 725 22 750 18.8C775 15.7 800 12.3 825 13C850 13.7 875 18.3 887.5 20.7L900 23L900 101L887.5 101C875 101 850 101 825 101C800 101 775 101 750 101C725 101 700 101 675 101C650 101 625 101 600 101C575 101 550 101 525 101C500 101 475 101 450 101C425 101 400 101 375 101C350 101 325 101 300 101C275 101 250 101 225 101C200 101 175 101 150 101C125 101 100 101 75 101C50 101 25 101 12.5 101L0 101Z" fill="#b61515"></path><path d="M0 35L12.5 34.7C25 34.3 50 33.7 75 31.5C100 29.3 125 25.7 150 28C175 30.3 200 38.7 225 41.8C250 45 275 43 300 40.2C325 37.3 350 33.7 375 34.5C400 35.3 425 40.7 450 43.5C475 46.3 500 46.7 525 46C550 45.3 575 43.7 600 42.7C625 41.7 650 41.3 675 42.2C700 43 725 45 750 46.2C775 47.3 800 47.7 825 47.2C850 46.7 875 45.3 887.5 44.7L900 44L900 101L887.5 101C875 101 850 101 825 101C800 101 775 101 750 101C725 101 700 101 675 101C650 101 625 101 600 101C575 101 550 101 525 101C500 101 475 101 450 101C425 101 400 101 375 101C350 101 325 101 300 101C275 101 250 101 225 101C200 101 175 101 150 101C125 101 100 101 75 101C50 101 25 101 12.5 101L0 101Z" fill="#970a0b"></path><path d="M0 62L12.5 60.8C25 59.7 50 57.3 75 54.5C100 51.7 125 48.3 150 47.5C175 46.7 200 48.3 225 47.8C250 47.3 275 44.7 300 46.8C325 49 350 56 375 56C400 56 425 49 450 46.3C475 43.7 500 45.3 525 47.7C550 50 575 53 600 55.2C625 57.3 650 58.7 675 59.7C700 60.7 725 61.3 750 59C775 56.7 800 51.3 825 48.2C850 45 875 44 887.5 43.5L900 43L900 101L887.5 101C875 101 850 101 825 101C800 101 775 101 750 101C725 101 700 101 675 101C650 101 625 101 600 101C575 101 550 101 525 101C500 101 475 101 450 101C425 101 400 101 375 101C350 101 325 101 300 101C275 101 250 101 225 101C200 101 175 101 150 101C125 101 100 101 75 101C50 101 25 101 12.5 101L0 101Z" fill="#7a0000"></path><path d="M0 59L12.5 59.3C25 59.7 50 60.3 75 61.8C100 63.3 125 65.7 150 67.8C175 70 200 72 225 72.8C250 73.7 275 73.3 300 73.8C325 74.3 350 75.7 375 76C400 76.3 425 75.7 450 74.3C475 73 500 71 525 69.2C550 67.3 575 65.7 600 66.8C625 68 650 72 675 70.8C700 69.7 725 63.3 750 63.7C775 64 800 71 825 73.3C850 75.7 875 73.3 887.5 72.2L900 71L900 101L887.5 101C875 101 850 101 825 101C800 101 775 101 750 101C725 101 700 101 675 101C650 101 625 101 600 101C575 101 550 101 525 101C500 101 475 101 450 101C425 101 400 101 375 101C350 101 325 101 300 101C275 101 250 101 225 101C200 101 175 101 150 101C125 101 100 101 75 101C50 101 25 101 12.5 101L0 101Z" fill="#590000"></path><path d="M0 80L12.5 81.2C25 82.3 50 84.7 75 86.3C100 88 125 89 150 87.5C175 86 200 82 225 82.5C250 83 275 88 300 87.8C325 87.7 350 82.3 375 81C400 79.7 425 82.3 450 82.8C475 83.3 500 81.7 525 80.7C550 79.7 575 79.3 600 81.3C625 83.3 650 87.7 675 86.8C700 86 725 80 750 79.7C775 79.3 800 84.7 825 85.3C850 86 875 82 887.5 80L900 78L900 101L887.5 101C875 101 850 101 825 101C800 101 775 101 750 101C725 101 700 101 675 101C650 101 625 101 600 101C575 101 550 101 525 101C500 101 475 101 450 101C425 101 400 101 375 101C350 101 325 101 300 101C275 101 250 101 225 101C200 101 175 101 150 101C125 101 100 101 75 101C50 101 25 101 12.5 101L0 101Z" fill="#000000"></path></svg>