<svg id="visual" viewBox="0 0 900 100" width="900" height="100" xmlns="http://www.w3.org/2000/svg" xmlns:xlink="http://www.w3.org/1999/xlink" version="1.1"><path d="M0 30L15 29.2C30 28.3 60 26.7 90 26.8C120 27 150 29 180 29.3C210 29.7 240 28.3 270 27.2C300 26 330 25 360 23.3C390 21.7 420 19.3 450 18.3C480 17.3 510 17.7 540 20.2C570 22.7 600 27.3 630 30.8C660 34.3 690 36.7 720 35.8C750 35 780 31 810 31C840 31 870 35 885 37L900 39L900 101L885 101C870 101 840 101 810 101C780 101 750 101 720 101C690 101 660 101 630 101C600 101 570 101 540 101C510 101 480 101 450 101C420 101 390 101 360 101C330 101 300 101 270 101C240 101 210 101 180 101C150 101 120 101 90 101C60 101 30 101 15 101L0 101Z" fill="#1a1a1b"></path><path d="M0 48L15 48.7C30 49.3 60 50.7 90 48.5C120 46.3 150 40.7 180 38.5C210 36.3 240 37.7 270 40.2C300 42.7 330 46.3 360 46.2C390 46 420 42 450 40.3C480 38.7 510 39.3 540 39.8C570 40.3 600 40.7 630 38.7C660 36.7 690 32.3 720 30.3C750 28.3 780 28.7 810 32.5C840 36.3 870 43.7 885 47.3L900 51L900 101L885 101C870 101 840 101 810 101C780 101 750 101 720 101C690 101 660 101 630 101C600 101 570 101 540 101C510 101 480 101 450 101C420 101 390 101 360 101C330 101 300 101 270 101C240 101 210 101 180 101C150 101 120 101 90 101C60 101 30 101 15 101L0 101Z" fill="#161617"></path><path d="M0 59L15 58.2C30 57.3 60 55.7 90 54.7C120 53.7 150 53.3 180 52.2C210 51 240 49 270 48.2C300 47.3 330 47.7 360 48.8C390 50 420 52 450 52.8C480 53.7 510 53.3 540 51C570 48.7 600 44.3 630 44.5C660 44.7 690 49.3 720 50.2C750 51 780 48 810 47.7C840 47.3 870 49.7 885 50.8L900 52L900 101L885 101C870 101 840 101 810 101C780 101 750 101 720 101C690 101 660 101 630 101C600 101 570 101 540 101C510 101 480 101 450 101C420 101 390 101 360 101C330 101 300 101 270 101C240 101 210 101 180 101C150 101 120 101 90 101C60 101 30 101 15 101L0 101Z" fill="#121213"></path><path d="M0 63L15 63.3C30 63.7 60 64.3 90 64.8C120 65.3 150 65.7 180 66C210 66.3 240 66.7 270 67.2C300 67.7 330 68.3 360 66.7C390 65 420 61 450 58.7C480 56.3 510 55.7 540 57.7C570 59.7 600 64.3 630 66C660 67.7 690 66.3 720 63.7C750 61 780 57 810 57.8C840 58.7 870 64.3 885 67.2L900 70L900 101L885 101C870 101 840 101 810 101C780 101 750 101 720 101C690 101 660 101 630 101C600 101 570 101 540 101C510 101 480 101 450 101C420 101 390 101 360 101C330 101 300 101 270 101C240 101 210 101 180 101C150 101 120 101 90 101C60 101 30 101 15 101L0 101Z" fill="#0d0d0e"></path><path d="M0 81L15 79.5C30 78 60 75 90 72.3C120 69.7 150 67.3 180 67.3C210 67.3 240 69.7 270 70.2C300 70.7 330 69.3 360 70.8C390 72.3 420 76.7 450 78.2C480 79.7 510 78.3 540 76.8C570 75.3 600 73.7 630 73.5C660 73.3 690 74.7 720 75.5C750 76.3 780 76.7 810 75C840 73.3 870 69.7 885 67.8L900 66L900 101L885 101C870 101 840 101 810 101C780 101 750 101 720 101C690 101 660 101 630 101C600 101 570 101 540 101C510 101 480 101 450 101C420 101 390 101 360 101C330 101 300 101 270 101C240 101 210 101 180 101C150 101 120 101 90 101C60 101 30 101 15 101L0 101Z" fill="#070708"></path><path d="M0 88L15 87.2C30 86.3 60 84.7 90 85C120 85.3 150 87.7 180 88C210 88.3 240 86.7 270 85.8C300 85 330 85 360 84.3C390 83.7 420 82.3 450 81.7C480 81 510 81 540 82.5C570 84 600 87 630 86.8C660 86.7 690 83.3 720 81.8C750 80.3 780 80.7 810 82.2C840 83.7 870 86.3 885 87.7L900 89L900 101L885 101C870 101 840 101 810 101C780 101 750 101 720 101C690 101 660 101 630 101C600 101 570 101 540 101C510 101 480 101 450 101C420 101 390 101 360 101C330 101 300 101 270 101C240 101 210 101 180 101C150 101 120 101 90 101C60 101 30 101 15 101L0 101Z" fill="#000000"></path></svg>